<?xml version="1.0" standalone="no"?>
<!DOCTYPE svg PUBLIC "-//W3C//DTD SVG 20010904//EN"
 "http://www.w3.org/TR/2001/REC-SVG-20010904/DTD/svg10.dtd">
<svg version="1.0" xmlns="http://www.w3.org/2000/svg"
 width="2607.000000pt" height="1947.000000pt" viewBox="0 0 2607.000000 1947.000000"
 preserveAspectRatio="xMidYMid meet">
<metadata>
Created by potrace 1.15, written by Peter Selinger 2001-2017
</metadata>
<g transform="translate(0.000000,1947.000000) scale(0.100000,-0.100000)"
fill="#000000" stroke="none">
<path d="M30 17559 c0 -1051 3 -1909 7 -1907 118 60 202 77 299 61 308 -53
461 -393 294 -651 -45 -70 -105 -122 -186 -159 -54 -26 -69 -28 -174 -28 -108
0 -119 2 -178 31 l-62 30 0 -3764 0 -3764 23 19 c13 10 73 58 133 106 131 106
407 291 560 375 104 57 343 171 390 186 16 5 25 20 34 54 53 214 290 392 520
392 120 0 266 -56 358 -136 l52 -45 122 16 c167 23 572 31 779 16 958 -70
1811 -388 2789 -1039 404 -269 688 -483 1540 -1162 949 -756 1211 -953 1668
-1255 883 -582 1818 -1033 2837 -1368 200 -66 539 -167 559 -167 6 0 63 59
126 132 532 612 1215 1173 1928 1582 193 111 462 249 470 242 3 -4 -19 -536
-49 -1184 -31 -647 -55 -1178 -54 -1179 0 -1 82 -8 180 -15 242 -17 1235 -17
1485 0 456 32 755 63 1131 117 2302 336 4499 1302 6219 2736 290 242 679 598
840 769 l55 59 110 4 c133 5 210 31 309 101 160 114 248 320 218 512 l-12 76
108 136 c168 213 309 402 461 623 l141 202 0 1622 0 1622 -92 6 c-364 24 -687
239 -843 562 -190 391 -108 849 207 1151 178 170 384 261 642 280 l86 7 0
2953 0 2954 -13015 0 -13015 0 0 -1911z"/>
<path d="M6755 5224 c-190 -42 -344 -179 -406 -361 -19 -54 -24 -89 -24 -173
0 -84 5 -119 24 -173 48 -140 146 -249 285 -317 414 -202 877 169 771 619 -43
181 -197 341 -384 397 -71 22 -188 25 -266 8z"/>
<path d="M16415 1100 c-5280 -599 -9616 -1090 -9635 -1093 -19 -2 4311 -4
9623 -5 l9657 -2 0 1095 0 1095 -22 -1 c-13 -1 -4343 -491 -9623 -1089z"/>
</g>
</svg>
